# xmcd
#
# Track frame offsets: 
#        150
#        24075
#        44997
#        61855
#        80240
#        92135
#        121167
#        139985
#        157597
#        174462
#        184327
#        201170
#
# Disc length: 3003 seconds
#
# Revision: 8
# Processed by: cddbd v1.5.2PL0 Copyright (c) Steve Scherf et al.
# Submitted via: ExactAudioCopy v1.1
#
DISCID=a10bb90c
DTITLE=Chris Rea - Tennis
DYEAR=1980
DGENRE=Rock
TTITLE0=Tennis
TTITLE1=Sweet Kiss
TTITLE2=Since I Don't See You Anymore
TTITLE3=Dancing Girls
TTITLE4=No Work Today
TTITLE5=Everytime I See You Smile
TTITLE6=For Ever And Ever
TTITLE7=Good News
TTITLE8=Friends Across The Water
TTITLE9=Distant Summers
TTITLE10=Only With You
TTITLE11=Stick It
EXTD=
EXTT0=
EXTT1=
EXTT2=
EXTT3=
EXTT4=
EXTT5=
EXTT6=
EXTT7=
EXTT8=
EXTT9=
EXTT10=
EXTT11=
PLAYORDER=
